<?xml version="1.0" encoding="utf-8"?>
<!-- Generator: Adobe Illustrator 19.0.0, SVG Export Plug-In . SVG Version: 6.00 Build 0)  -->
<svg version="1.1" id="Layer_1" xmlns="http://www.w3.org/2000/svg" xmlns:xlink="http://www.w3.org/1999/xlink" x="0px" y="0px"
	 width="64.5px" height="125px" viewBox="-247 358.9 64.5 125" style="enable-background:new -247 358.9 64.5 125;"
	 xml:space="preserve">
<rect x="-215" y="415.1" width="2.4" height="65.9"/>
<path d="M-244.6,449.8h28.2c0,0,0.5,12.6-14.1,13.6C-230.5,463.4-243.1,464-244.6,449.8z"/>
<path d="M-211.2,463.5h16.3c0,0,0.3,7.4-8.1,7.9C-203.1,471.4-210.4,471.8-211.2,463.5z"/>
<path d="M-211.2,428.8h23.7c0,0,0.5,10.8-11.9,11.6C-199.4,440.3-210,440.9-211.2,428.8z"/>
<path d="M-239.6,375.9"/>
<path d="M-190.8,368.6l-23.7,22.7l-22.7-22c-5.5,5.1-5.7,8.5-5.7,16.5c0,15.6,13,28.2,29.1,28.2s29.1-12.6,29.1-28.2
	C-184.8,377.5-184.9,373.8-190.8,368.6z"/>
<g>
	<path d="M-223.7,372.1c0.3-0.4,0.5-0.9,0.5-1.5c0-1.5-1.2-2.7-2.8-2.7c-0.5,0-1,0.2-1.5,0.4L-223.7,372.1z"/>
	<path d="M-219.8,375.9c0.3-0.4,0.6-1,0.6-1.6c0-1.5-1.2-2.7-2.8-2.7c-0.6,0-1.1,0.2-1.6,0.5L-219.8,375.9z"/>
	<path d="M-215.9,379.7c0.3-0.4,0.5-1,0.5-1.5c0-1.5-1.2-2.7-2.8-2.7c-0.6,0-1.1,0.2-1.5,0.5L-215.9,379.7z"/>
	<path d="M-226.9,366.7c0-1.5-1.2-2.7-2.8-2.7c-0.6,0-1.1,0.2-1.6,0.5l3.8,3.7C-227.1,367.8-226.9,367.3-226.9,366.7z"/>
	<path d="M-197.8,364.8c-0.5-0.3-1-0.5-1.6-0.5c-1.5,0-2.8,1.2-2.8,2.7c0,0.6,0.2,1.2,0.6,1.6L-197.8,364.8z"/>
	<path d="M-201.7,368.7c-0.4-0.3-0.9-0.4-1.5-0.4c-1.5,0-2.8,1.2-2.8,2.7c0,0.5,0.2,1,0.5,1.5L-201.7,368.7z"/>
	<path d="M-209.4,376.3c-0.4-0.3-1-0.5-1.5-0.5c-1.5,0-2.8,1.2-2.8,2.7c0,0.6,0.2,1.1,0.5,1.5L-209.4,376.3z"/>
	<path d="M-189.9,365.4l-3.7-3.5l0,0l0.1,0l-20.2,20l-0.7,0.7l-2.3-2.2c0,0,0,0,0,0l-3.8-3.7c0,0,0,0,0,0l-0.1-0.1c0,0,0,0,0,0
		l-3.8-3.7c0,0,0,0,0,0l-0.1-0.1c0,0,0,0,0,0l-3.8-3.8c0,0,0,0,0,0l-0.1-0.1c0,0,0,0,0,0l-3.7-3.7c0,0,0,0,0,0l-3.5-3.5l-3.7,3.5
		l21.1,20.9l3.6,3.5L-189.9,365.4z"/>
	<path d="M-205.5,372.4c-0.4-0.3-1-0.5-1.6-0.5c-1.5,0-2.8,1.2-2.8,2.7c0,0.6,0.2,1.1,0.6,1.6L-205.5,372.4z"/>
</g>
</svg>
