<svg xmlns="http://www.w3.org/2000/svg" xmlns:xlink="http://www.w3.org/1999/xlink" version="1.1" x="0px" y="0px" viewBox="0 0 100 125" enable-background="new 0 0 100 100" xml:space="preserve" fill="#ffffff"><rect x="47.299" y="45.159" width="1.756" height="50.594"/><path d="M25.286,71.841h20.958c0,0,0.399,9.713-10.479,10.444C35.765,82.285,26.417,82.752,25.286,71.841z"/><path d="M50.107,82.351h12.075c0,0,0.23,5.663-6.037,6.088C56.145,88.438,50.759,88.713,50.107,82.351z"/><path d="M50.107,55.679h17.61c0,0,0.336,8.257-8.807,8.879C58.91,64.558,51.058,64.954,50.107,55.679z"/><path d="M29.004,15.067"/><path d="M65.293,9.463l-17.638,17.43L30.803,9.983c-4.084,3.94-4.227,6.55-4.227,12.682c0,11.962,9.67,21.659,21.6,21.659  s21.602-9.697,21.602-21.659C69.777,16.267,69.691,13.428,65.293,9.463z"/><g><path d="M40.88,12.138c0.219-0.325,0.357-0.708,0.357-1.13c0-1.135-0.919-2.055-2.055-2.055c-0.404,0-0.773,0.127-1.09,0.33   L40.88,12.138z"/><path d="M43.737,15.063c0.253-0.339,0.416-0.748,0.416-1.204c0-1.135-0.92-2.055-2.054-2.055c-0.439,0-0.837,0.148-1.17,0.383   L43.737,15.063z"/><path d="M46.617,18.013c0.242-0.335,0.396-0.736,0.396-1.182c0-1.135-0.92-2.056-2.055-2.056c-0.428,0-0.816,0.143-1.144,0.367   L46.617,18.013z"/><path d="M38.461,7.994c0-1.135-0.921-2.056-2.056-2.056c-0.448,0-0.851,0.157-1.187,0.401l2.811,2.878   C38.292,8.875,38.461,8.459,38.461,7.994z"/><path d="M60.062,6.561c-0.338-0.243-0.743-0.398-1.191-0.398c-1.135,0-2.055,0.919-2.055,2.055c0,0.465,0.168,0.884,0.43,1.228   L60.062,6.561z"/><path d="M57.184,9.509c-0.316-0.204-0.685-0.333-1.09-0.333c-1.135,0-2.054,0.92-2.054,2.055c0,0.422,0.138,0.806,0.356,1.13   L57.184,9.509z"/><path d="M51.461,15.368C51.134,15.143,50.746,15,50.318,15c-1.135,0-2.055,0.921-2.055,2.055c0,0.445,0.153,0.848,0.394,1.184   L51.461,15.368z"/><path d="M65.979,7.007l-2.736-2.672l-0.023,0.023l0.039,0.038L48.261,19.754l-0.519,0.52l-1.701-1.703   c0.007-0.005,0.013-0.012,0.021-0.017l-2.802-2.871c-0.005,0.007-0.013,0.013-0.018,0.021l-0.088-0.09   c0.007-0.005,0.014-0.012,0.021-0.017l-2.791-2.858c-0.005,0.008-0.011,0.014-0.017,0.022l-0.044-0.045   c0.008-0.005,0.013-0.012,0.021-0.018l-2.822-2.891c-0.006,0.008-0.013,0.013-0.019,0.021l-0.065-0.067   c0.008-0.004,0.014-0.012,0.022-0.017l-2.781-2.847c-0.005,0.007-0.013,0.014-0.017,0.021l-2.608-2.67l-2.721,2.657l15.705,16.081   l2.656,2.721L65.979,7.007z"/><path d="M54.348,12.412c-0.332-0.236-0.73-0.384-1.17-0.384c-1.134,0-2.053,0.92-2.053,2.056c0,0.456,0.16,0.867,0.411,1.207   L54.348,12.412z"/></g></svg>